<svg width="29" height="31" viewBox="0 0 29 31" fill="none" xmlns="http://www.w3.org/2000/svg">
<circle cx="14.5" cy="16.5" r="14.5" fill="#6C4710"/>
<circle cx="14.5" cy="14.5" r="13.5" fill="#FFDE88" stroke="url(#paint0_linear_19106_3256)" stroke-width="2"/>
<path d="M17.355 11.8237C17.2743 11.5433 17.161 11.2955 17.015 11.0804C16.8691 10.8615 16.6905 10.6771 16.4792 10.5273C16.2718 10.3737 16.0336 10.2565 15.7648 10.1758C15.4997 10.0952 15.2059 10.0549 14.8832 10.0549C14.2802 10.0549 13.7501 10.2047 13.293 10.5043C12.8398 10.8039 12.4864 11.2398 12.2329 11.8122C11.9794 12.3806 11.8526 13.0759 11.8526 13.8979C11.8526 14.7199 11.9774 15.4189 12.2271 15.9951C12.4768 16.5713 12.8302 17.0111 13.2872 17.3145C13.7443 17.6141 14.284 17.7639 14.9063 17.7639C15.4709 17.7639 15.953 17.6641 16.3524 17.4643C16.7558 17.2607 17.063 16.9746 17.2743 16.6058C17.4894 16.2371 17.597 15.8011 17.597 15.2979L18.104 15.3728H15.0618V13.4945H19.9996V14.9811C19.9996 16.0181 19.7806 16.9093 19.3427 17.6545C18.9048 18.3958 18.3018 18.9681 17.5336 19.3714C16.7654 19.7709 15.8857 19.9706 14.8947 19.9706C13.7885 19.9706 12.8167 19.7267 11.9794 19.2389C11.142 18.7472 10.489 18.0501 10.0204 17.1474C9.55563 16.2409 9.32324 15.1654 9.32324 13.9209C9.32324 12.9645 9.46152 12.1118 9.73808 11.3627C10.0185 10.6099 10.4103 9.97227 10.9135 9.44988C11.4166 8.92749 12.0024 8.52994 12.6708 8.25722C13.3391 7.9845 14.0631 7.84814 14.8429 7.84814C15.5112 7.84814 16.1335 7.94609 16.7097 8.14199C17.2858 8.33404 17.7967 8.60676 18.2423 8.96014C18.6917 9.31352 19.0585 9.73412 19.3427 10.2219C19.627 10.7059 19.8094 11.2398 19.8901 11.8237H17.355Z" fill="#C0780C"/>
<defs>
<linearGradient id="paint0_linear_19106_3256" x1="21.5" y1="-5.5" x2="1.63219e-06" y2="50" gradientUnits="userSpaceOnUse">
<stop stop-color="#F0A028"/>
<stop offset="1" stop-color="#C0780C"/>
</linearGradient>
</defs>
</svg>
